<svg width="126" height="33" viewBox="0 0 126 33" fill="none" xmlns="http://www.w3.org/2000/svg">
<path fill-rule="evenodd" clip-rule="evenodd" d="M16.0363 0C19.7066 0 23.0889 1.23349 25.791 3.30782C28.5212 5.40386 30.5572 8.35925 31.4954 11.7692H31.4966L31.5305 11.8956C31.6563 12.3694 31.7617 12.852 31.8447 13.343C31.9264 13.8276 31.9871 14.3186 32.0242 14.814L32.0376 14.996H20.8268L20.1594 16.5819L32.0599 16.5812L32.0523 16.7575C32.0299 17.2529 31.9852 17.7419 31.9194 18.2246C31.853 18.713 31.7642 19.1938 31.655 19.665L31.6244 19.7965H31.6224C30.7718 23.3284 28.7517 26.4045 25.9947 28.5918C23.2594 30.7625 19.7986 32.0592 16.0351 32.0592C15.6155 32.0592 15.1978 32.0426 14.7833 32.0107C14.3688 31.9788 13.955 31.9296 13.5418 31.8651C13.2474 31.8192 12.1585 31.6391 11.9426 31.5306C11.7332 31.4757 11.5237 31.415 11.3136 31.3512C11.0996 31.2854 10.8908 31.2165 10.6883 31.145L10.5191 31.085L15.3057 19.7965H13.3936L8.85735 30.3673L8.69577 30.2843C8.25958 30.0596 7.83233 29.8132 7.41721 29.5482C6.99698 29.2801 6.59336 28.9953 6.20762 28.6959L6.11374 28.6231L6.11438 28.6218C4.23357 27.1393 2.69252 25.2438 1.62726 23.0711C0.584998 20.9451 0 18.5547 0 16.0296C0 11.6032 1.79523 7.59566 4.69659 4.69518C7.59795 1.79469 11.6067 0 16.0344 0H16.0363ZM17.329 14.9953H15.4558L14.775 16.5819H16.6597L17.329 14.9953ZM24.2717 6.81292L22.1858 11.7686H27.6175C27.2707 10.8186 26.8096 9.92155 26.2521 9.09603C25.6856 8.25646 25.0195 7.48968 24.2717 6.81292ZM18.6912 11.7686L21.5696 4.94928C20.7387 4.52599 19.8548 4.19335 18.9307 3.96543C17.9861 3.73239 16.9981 3.60853 15.9821 3.60853C12.5775 3.60853 9.48195 5.001 7.23775 7.24452C4.99356 9.48804 3.60067 12.5826 3.60067 15.9862V16.0724C3.60067 16.1994 3.60195 16.3118 3.60451 16.4076L3.61025 16.5825L11.2701 16.5819L13.3355 11.7686H18.6899H18.6912ZM9.89195 19.7965L4.17737 19.7971C4.50499 20.8269 4.96354 21.7993 5.53385 22.6931C6.11182 23.5991 6.80539 24.4265 7.59284 25.1544L9.89195 19.7965ZM27.7868 19.7952L18.7998 19.7958L15.1422 28.4213C15.2451 28.4284 15.3466 28.4341 15.445 28.4386C15.6148 28.4456 15.7943 28.4494 15.9821 28.4494C18.7436 28.4494 21.3013 27.5332 23.3661 25.9901C25.4244 24.4521 26.9936 22.2922 27.7868 19.7952Z" fill="#FFB700"/>
<path d="M56.344 21.998C54.7893 23.538 52.8973 24.308 50.668 24.308C48.4387 24.308 46.5467 23.538 44.992 21.998C43.4373 20.458 42.66 18.5587 42.66 16.3C42.66 14.0413 43.4373 12.142 44.992 10.602C46.5467 9.062 48.4387 8.292 50.668 8.292C52.8973 8.292 54.7893 9.062 56.344 10.602C57.8987 12.142 58.676 14.0413 58.676 16.3C58.676 18.5587 57.8987 20.458 56.344 21.998ZM46.18 16.3C46.18 17.6493 46.6053 18.7493 47.456 19.6C48.3067 20.4507 49.3773 20.876 50.668 20.876C51.944 20.876 53.0073 20.4507 53.858 19.6C54.7233 18.7347 55.156 17.6347 55.156 16.3C55.156 14.9653 54.7233 13.8653 53.858 13C53.0073 12.1493 51.944 11.724 50.668 11.724C49.3773 11.724 48.3067 12.1493 47.456 13C46.6053 13.8507 46.18 14.9507 46.18 16.3ZM72.8679 24H69.0839L66.1799 18.94H64.5079V24H60.9879V8.6H67.1479C68.6146 8.6 69.8612 9.11333 70.8879 10.14C71.9146 11.1667 72.4279 12.4133 72.4279 13.88C72.4279 14.804 72.1639 15.6693 71.6359 16.476C71.1226 17.2827 70.4406 17.906 69.5899 18.346L72.8679 24ZM67.1479 11.9H64.5079V15.86H67.1479C67.6319 15.86 68.0426 15.6693 68.3799 15.288C68.7319 14.9067 68.9079 14.4373 68.9079 13.88C68.9079 13.3227 68.7319 12.8533 68.3799 12.472C68.0426 12.0907 67.6319 11.9 67.1479 11.9ZM74.853 24V8.6H78.373V24H74.853ZM89.8851 8.6H93.8891L88.7191 18.082V24H85.1991V18.082L80.0291 8.6H84.0331L86.9591 14.54L89.8851 8.6ZM107.465 21.998C105.91 23.538 104.018 24.308 101.789 24.308C99.5594 24.308 97.6674 23.538 96.1128 21.998C94.5581 20.458 93.7808 18.5587 93.7808 16.3C93.7808 14.0413 94.5581 12.142 96.1128 10.602C97.6674 9.062 99.5594 8.292 101.789 8.292C104.018 8.292 105.91 9.062 107.465 10.602C109.019 12.142 109.797 14.0413 109.797 16.3C109.797 18.5587 109.019 20.458 107.465 21.998ZM97.3008 16.3C97.3008 17.6493 97.7261 18.7493 98.5768 19.6C99.4274 20.4507 100.498 20.876 101.789 20.876C103.065 20.876 104.128 20.4507 104.979 19.6C105.844 18.7347 106.277 17.6347 106.277 16.3C106.277 14.9653 105.844 13.8653 104.979 13C104.128 12.1493 103.065 11.724 101.789 11.724C100.498 11.724 99.4274 12.1493 98.5768 13C97.7261 13.8507 97.3008 14.9507 97.3008 16.3ZM120.689 16.96V8.6H124.209V24H121.569L115.629 15.64V24H112.109V8.6H114.749L120.689 16.96Z" fill="#011957"/>
<path d="M44.52 26.4H46.608C47.1413 26.4 47.5947 26.5813 47.968 26.944C48.336 27.3067 48.52 27.752 48.52 28.28C48.52 28.808 48.336 29.2533 47.968 29.616C47.5947 29.9787 47.1413 30.16 46.608 30.16H45.624V32H44.52V26.4ZM45.624 29.128H46.608C46.8427 29.128 47.0373 29.048 47.192 28.888C47.3467 28.7227 47.424 28.52 47.424 28.28C47.424 28.0347 47.3467 27.832 47.192 27.672C47.0373 27.512 46.8427 27.432 46.608 27.432H45.624V29.128ZM54.0284 32H52.8284L52.4924 30.992H50.2604L49.9244 32H48.7324L50.6924 26.4H52.0604L54.0284 32ZM51.3804 27.672L50.6124 29.96H52.1484L51.3804 27.672ZM57.5896 26.4H58.8376L56.9176 29.816V32H55.8216V29.816L53.9096 26.4H55.1576L56.3736 28.736L57.5896 26.4ZM64.2784 26.4H65.4144V32H64.3184V28.368L62.7424 30.968H62.6144L61.0384 28.376V32H59.9344V26.4H61.0704L62.6784 29.048L64.2784 26.4ZM68.1218 29.688V30.944H70.4818V32H67.0178V26.4H70.4418V27.456H68.1218V28.648H70.2418V29.688H68.1218ZM75.06 29.816V26.4H76.164V32H75.324L72.924 28.576V32H71.82V26.4H72.66L75.06 29.816ZM77.3468 26.4H81.4668V27.456H79.9548V32H78.8508V27.456H77.3468V26.4ZM87.1151 32.112C86.5658 32.112 86.1018 31.9893 85.7231 31.744C85.3445 31.4987 85.0751 31.16 84.9151 30.728L85.8591 30.176C86.0778 30.7467 86.5071 31.032 87.1471 31.032C87.4458 31.032 87.6698 30.9787 87.8191 30.872C87.9685 30.7653 88.0431 30.6213 88.0431 30.44C88.0431 30.2427 87.9551 30.0907 87.7791 29.984C87.6031 29.872 87.2885 29.752 86.8351 29.624C86.3445 29.4747 85.9578 29.3013 85.6751 29.104C85.3231 28.8427 85.1471 28.4587 85.1471 27.952C85.1471 27.44 85.3258 27.0373 85.6831 26.744C86.0405 26.44 86.4751 26.288 86.9871 26.288C87.4351 26.288 87.8325 26.3973 88.1791 26.616C88.5258 26.8347 88.7951 27.144 88.9871 27.544L88.0591 28.08C87.8351 27.6 87.4778 27.36 86.9871 27.36C86.7631 27.36 86.5845 27.4133 86.4511 27.52C86.3178 27.6213 86.2511 27.7547 86.2511 27.92C86.2511 28.096 86.3231 28.24 86.4671 28.352C86.6271 28.464 86.9098 28.5813 87.3151 28.704L87.6991 28.832C87.7685 28.8533 87.8885 28.8987 88.0591 28.968C88.2191 29.0267 88.3365 29.0827 88.4111 29.136C88.6725 29.296 88.8485 29.4613 88.9391 29.632C89.0778 29.856 89.1471 30.12 89.1471 30.424C89.1471 30.9413 88.9578 31.352 88.5791 31.656C88.2005 31.96 87.7125 32.112 87.1151 32.112ZM91.4921 29.688V30.944H93.8521V32H90.3881V26.4H93.8121V27.456H91.4921V28.648H93.6121V29.688H91.4921ZM99.4543 32H98.2623L97.1343 30.056H96.2943V32H95.1903V26.4H97.4303C97.9476 26.4 98.3876 26.5813 98.7503 26.944C99.113 27.3067 99.2943 27.744 99.2943 28.256C99.2943 28.6027 99.1956 28.9253 98.9983 29.224C98.801 29.5173 98.5396 29.7387 98.2143 29.888L99.4543 32ZM97.4303 27.432H96.2943V29.088H97.4303C97.6383 29.088 97.817 29.008 97.9663 28.848C98.1156 28.6827 98.1903 28.4853 98.1903 28.256C98.1903 28.0267 98.1156 27.832 97.9663 27.672C97.817 27.512 97.6383 27.432 97.4303 27.432ZM103.33 32H101.962L100.082 26.4H101.282L102.65 30.704L104.01 26.4H105.218L103.33 32ZM106.318 32V26.4H107.422V32H106.318ZM111.675 32.112C110.837 32.112 110.141 31.832 109.587 31.272C109.037 30.7173 108.763 30.0267 108.763 29.2C108.763 28.368 109.037 27.6773 109.587 27.128C110.141 26.568 110.837 26.288 111.675 26.288C112.181 26.288 112.648 26.408 113.075 26.648C113.507 26.8827 113.843 27.2027 114.083 27.608L113.131 28.16C112.992 27.9093 112.795 27.7147 112.539 27.576C112.283 27.432 111.995 27.36 111.675 27.36C111.131 27.36 110.691 27.5307 110.355 27.872C110.024 28.2187 109.859 28.6613 109.859 29.2C109.859 29.7333 110.024 30.1733 110.355 30.52C110.691 30.8613 111.131 31.032 111.675 31.032C111.995 31.032 112.283 30.9627 112.539 30.824C112.8 30.68 112.997 30.4853 113.131 30.24L114.083 30.792C113.843 31.1973 113.507 31.52 113.075 31.76C112.648 31.9947 112.181 32.112 111.675 32.112ZM116.425 29.688V30.944H118.785V32H115.321V26.4H118.745V27.456H116.425V28.648H118.545V29.688H116.425ZM122.035 32.112C121.486 32.112 121.022 31.9893 120.643 31.744C120.264 31.4987 119.995 31.16 119.835 30.728L120.779 30.176C120.998 30.7467 121.427 31.032 122.067 31.032C122.366 31.032 122.59 30.9787 122.739 30.872C122.888 30.7653 122.963 30.6213 122.963 30.44C122.963 30.2427 122.875 30.0907 122.699 29.984C122.523 29.872 122.208 29.752 121.755 29.624C121.264 29.4747 120.878 29.3013 120.595 29.104C120.243 28.8427 120.067 28.4587 120.067 27.952C120.067 27.44 120.246 27.0373 120.603 26.744C120.96 26.44 121.395 26.288 121.907 26.288C122.355 26.288 122.752 26.3973 123.099 26.616C123.446 26.8347 123.715 27.144 123.907 27.544L122.979 28.08C122.755 27.6 122.398 27.36 121.907 27.36C121.683 27.36 121.504 27.4133 121.371 27.52C121.238 27.6213 121.171 27.7547 121.171 27.92C121.171 28.096 121.243 28.24 121.387 28.352C121.547 28.464 121.83 28.5813 122.235 28.704L122.619 28.832C122.688 28.8533 122.808 28.8987 122.979 28.968C123.139 29.0267 123.256 29.0827 123.331 29.136C123.592 29.296 123.768 29.4613 123.859 29.632C123.998 29.856 124.067 30.12 124.067 30.424C124.067 30.9413 123.878 31.352 123.499 31.656C123.12 31.96 122.632 32.112 122.035 32.112Z" fill="#011957"/>
</svg>
