<svg width="33" height="33" viewBox="0 0 33 33" fill="none" xmlns="http://www.w3.org/2000/svg">
<path fill-rule="evenodd" clip-rule="evenodd" d="M16.0363 0C19.7066 0 23.0889 1.23349 25.791 3.30782C28.5212 5.40386 30.5572 8.35925 31.4954 11.7692H31.4966L31.5305 11.8956C31.6563 12.3694 31.7617 12.852 31.8447 13.343C31.9264 13.8276 31.9871 14.3186 32.0242 14.814L32.0376 14.996H20.8268L20.1594 16.5819L32.0599 16.5812L32.0523 16.7575C32.0299 17.2529 31.9852 17.7419 31.9194 18.2246C31.853 18.713 31.7642 19.1938 31.655 19.665L31.6244 19.7965H31.6224C30.7718 23.3284 28.7517 26.4045 25.9947 28.5918C23.2594 30.7625 19.7986 32.0592 16.0351 32.0592C15.6155 32.0592 15.1978 32.0426 14.7833 32.0107C14.3688 31.9788 13.955 31.9296 13.5418 31.8651C13.2474 31.8192 12.1585 31.6391 11.9426 31.5306C11.7332 31.4757 11.5237 31.415 11.3136 31.3512C11.0996 31.2854 10.8908 31.2165 10.6883 31.145L10.5191 31.085L15.3057 19.7965H13.3936L8.85735 30.3673L8.69577 30.2843C8.25958 30.0596 7.83233 29.8132 7.41721 29.5482C6.99698 29.2801 6.59336 28.9953 6.20762 28.6959L6.11374 28.6231L6.11438 28.6218C4.23357 27.1393 2.69252 25.2438 1.62726 23.0711C0.584998 20.9451 0 18.5547 0 16.0296C0 11.6032 1.79523 7.59566 4.69659 4.69518C7.59795 1.79469 11.6067 0 16.0344 0H16.0363ZM17.329 14.9953H15.4558L14.775 16.5819H16.6597L17.329 14.9953ZM24.2717 6.81292L22.1858 11.7686H27.6175C27.2707 10.8186 26.8096 9.92155 26.2521 9.09603C25.6856 8.25646 25.0195 7.48968 24.2717 6.81292ZM18.6912 11.7686L21.5696 4.94928C20.7387 4.52599 19.8548 4.19335 18.9307 3.96543C17.9861 3.73239 16.9981 3.60853 15.9821 3.60853C12.5775 3.60853 9.48195 5.001 7.23775 7.24452C4.99356 9.48804 3.60067 12.5826 3.60067 15.9862V16.0724C3.60067 16.1994 3.60195 16.3118 3.60451 16.4076L3.61025 16.5825L11.2701 16.5819L13.3355 11.7686H18.6899H18.6912ZM9.89195 19.7965L4.17737 19.7971C4.50499 20.8269 4.96354 21.7993 5.53385 22.6931C6.11182 23.5991 6.80539 24.4265 7.59284 25.1544L9.89195 19.7965ZM27.7868 19.7952L18.7998 19.7958L15.1422 28.4213C15.2451 28.4284 15.3466 28.4341 15.445 28.4386C15.6148 28.4456 15.7943 28.4494 15.9821 28.4494C18.7436 28.4494 21.3013 27.5332 23.3661 25.9901C25.4244 24.4521 26.9936 22.2922 27.7868 19.7952Z" fill="#FFB700"/>
</svg>
